<svg width="14" height="14" viewBox="0 0 14 14" fill="none" xmlns="http://www.w3.org/2000/svg">
<path d="M12.923 11.846V1.615C12.923 1.47231 12.8663 1.33547 12.7654 1.23458C12.6645 1.13368 12.5277 1.077 12.385 1.077H2.154C2.154 0.482 2.636 0 3.231 0H12.923C13.518 0 14 0.482 14 1.077V10.769C14 11.364 13.518 11.846 12.923 11.846ZM11.846 3.231V12.923C11.846 13.518 11.364 14 10.769 14H1.077C0.791362 14 0.517423 13.8865 0.315446 13.6846C0.113469 13.4826 0 13.2086 0 12.923V3.231C0 2.636 0.482 2.154 1.077 2.154H10.769C11.364 2.154 11.846 2.636 11.846 3.231ZM9.692 5.385H2.154C2.01131 5.385 1.87447 5.44168 1.77358 5.54258C1.67268 5.64347 1.616 5.78031 1.616 5.923C1.616 6.06569 1.67268 6.20253 1.77358 6.30342C1.87447 6.40432 2.01131 6.461 2.154 6.461H9.692C9.83469 6.461 9.97153 6.40432 10.0724 6.30342C10.1733 6.20253 10.23 6.06569 10.23 5.923C10.23 5.78031 10.1733 5.64347 10.0724 5.54258C9.97153 5.44168 9.83469 5.385 9.692 5.385ZM9.692 8.615H2.154C2.01131 8.615 1.87447 8.67168 1.77358 8.77258C1.67268 8.87347 1.616 9.01031 1.616 9.153C1.616 9.29569 1.67268 9.43253 1.77358 9.53342C1.87447 9.63432 2.01131 9.691 2.154 9.691H9.692C9.83469 9.691 9.97153 9.63432 10.0724 9.53342C10.1733 9.43253 10.23 9.29569 10.23 9.153C10.23 9.01031 10.1733 8.87347 10.0724 8.77258C9.97153 8.67168 9.83469 8.615 9.692 8.615Z" fill="black"/>
</svg>
