<svg width="30" height="30" viewBox="0 0 30 30" fill="none" xmlns="http://www.w3.org/2000/svg">
<path fill-rule="evenodd" clip-rule="evenodd" d="M15 30C23.2843 30 30 23.2843 30 15C30 6.71573 23.2843 0 15 0C6.71573 0 0 6.71573 0 15C0 23.2843 6.71573 30 15 30ZM19.1783 10.8658C19.1783 12.3195 18.4295 13.5992 17.2992 14.348C20.2066 15.2463 22.3125 17.7916 22.3125 20.7904C22.3125 21.0787 22.0787 21.3125 21.7904 21.3125C21.5021 21.3125 21.2684 21.0787 21.2684 20.7904C21.2684 17.6211 18.4559 15.0441 15 15.0441C11.5424 15.0441 8.73164 17.6229 8.73164 20.7904C8.73164 21.0787 8.49785 21.3125 8.20957 21.3125C7.92129 21.3125 7.6875 21.0787 7.6875 20.7904C7.6875 17.7916 9.79336 15.2463 12.7008 14.348C11.5705 13.601 10.8217 12.3195 10.8217 10.8658C10.8217 8.56133 12.6955 6.6875 15 6.6875C17.3045 6.6875 19.1783 8.56133 19.1783 10.8658ZM15 7.73164C13.2721 7.73164 11.8658 9.13789 11.8658 10.8658C11.8658 12.5938 13.2721 14 15 14C16.7279 14 18.1342 12.5938 18.1342 10.8658C18.1342 9.13789 16.7279 7.73164 15 7.73164Z" fill="#727ABA"/>
</svg>
