<svg width="28" height="28" viewBox="0 0 28 28" fill="none" xmlns="http://www.w3.org/2000/svg">
<path d="M14.0003 1.82031C7.28031 1.82031 1.82031 7.28031 1.82031 14.0003C1.82031 20.7203 7.28031 26.1803 14.0003 26.1803C20.7203 26.1803 26.1803 20.7203 26.1803 14.0003C26.1803 7.28031 20.7203 1.82031 14.0003 1.82031ZM20.9303 17.1503C20.9163 17.1503 20.9163 17.1503 20.9303 17.1503H18.0603C17.8083 17.1503 17.5843 16.9683 17.5423 16.7163L17.0383 13.6923L15.1483 20.2583C15.0783 20.4823 14.8823 20.6363 14.6443 20.6363H14.6303C14.3923 20.6223 14.1823 20.4543 14.1403 20.2163L11.9423 9.98231L10.5563 15.8763C10.5003 16.1143 10.2903 16.2823 10.0383 16.2823H7.07031C6.80431 16.2823 6.58031 16.0583 6.58031 15.7923C6.58031 15.5263 6.80431 15.3023 7.07031 15.3023H9.68831L11.4523 7.78431C11.5083 7.54631 11.7183 7.37831 11.9703 7.37831C12.2223 7.37831 12.4323 7.54631 12.4743 7.79831L14.6863 18.2423L16.6183 11.4943C16.6883 11.2563 16.8983 11.1023 17.1503 11.1163C17.4023 11.1303 17.5983 11.3123 17.6403 11.5503L18.4243 16.1703H20.9163C21.1823 16.1703 21.4063 16.3943 21.4063 16.6603C21.4203 16.9263 21.1963 17.1503 20.9303 17.1503Z" fill="#727ABA"/>
</svg>
