<svg width="46" height="46" viewBox="0 0 46 46" fill="none" xmlns="http://www.w3.org/2000/svg">
<path d="M41.4164 45H4.58365C2.61264 45 1 43.3874 1 41.4164V4.58365C1 2.61264 2.61264 1 4.58365 1H41.4164C43.3874 1 45 2.61264 45 4.58365V41.4164C45 43.3874 43.3874 45 41.4164 45Z" stroke="#2A294F" stroke-miterlimit="10"/>
<path d="M20.1458 32.2536L15.5492 24.2119L12.5957 29.3724L15.5546 34.5495L20.1476 32.2524L20.1458 32.2536Z" fill="#252F69"/>
<path d="M7.25586 38.6993L14.4261 35.1132L11.8692 30.6396L7.25586 38.6993Z" fill="#252F69"/>
<path d="M20.1444 13.7469L20.1462 13.7481L7.25586 7.30176L15.5478 21.7886L20.1444 13.7469Z" fill="#727ABA"/>
<path d="M21.2764 14.2266L16.2832 22.9629L21.2764 31.6992L21.2788 31.698L38.7467 22.9629L21.2764 14.2266Z" fill="#414588"/>
</svg>
