<svg width="35" height="35" viewBox="0 0 35 35" fill="none" xmlns="http://www.w3.org/2000/svg">
<path d="M0.542137 31.8296L6.61134 25.7604C4.22625 22.7346 3.02311 18.9445 3.22628 15.097C3.42944 11.2495 5.02505 7.60724 7.71555 4.8494C10.406 2.09155 14.0078 0.4064 17.8491 0.10819C21.6904 -0.190021 25.509 0.919066 28.5929 3.22863C31.6768 5.5382 33.8154 8.89057 34.6099 12.6606C35.4045 16.4307 34.8007 20.361 32.9112 23.7187C31.0217 27.0764 27.9754 29.6323 24.3405 30.9097C20.7056 32.1871 16.7301 32.0988 13.1554 30.6614C12.916 30.5647 12.6979 30.4218 12.5136 30.2409C12.3293 30.0599 12.1825 29.8444 12.0815 29.6068C11.9806 29.3691 11.9274 29.1138 11.925 28.8556C11.9227 28.5973 11.9713 28.3412 12.0679 28.1017C12.1646 27.8622 12.3075 27.6441 12.4884 27.4598C12.6694 27.2756 12.8848 27.1288 13.1225 27.0278C13.3602 26.9268 13.6155 26.8736 13.8737 26.8713C14.132 26.8689 14.3881 26.9175 14.6276 27.0142C17.3781 28.1305 20.4448 28.1867 23.2344 27.1721C26.0239 26.1574 28.3378 24.144 29.7283 21.5214C31.1188 18.8989 31.4869 15.8538 30.7615 12.9755C30.0361 10.0972 28.2686 7.59029 25.8013 5.94007C23.334 4.28985 20.3421 3.61363 17.4049 4.04229C14.4677 4.47096 11.7939 5.97401 9.90112 8.26056C8.00831 10.5471 7.03105 13.4545 7.15848 16.4201C7.28592 19.3857 8.509 22.1986 10.591 24.3144C10.6012 24.3256 10.6107 24.3375 10.6195 24.35C10.6284 24.3579 10.6379 24.365 10.648 24.3713C10.9565 24.6828 11.1452 25.0932 11.1809 25.5302C11.2165 25.9672 11.0967 26.4027 10.8427 26.7601C10.7657 26.8819 10.6757 26.9949 10.5744 27.0973C10.5387 27.1305 10.4984 27.1566 10.4604 27.1875L3.1897 34.4582C2.84014 34.8049 2.36775 34.9994 1.87542 34.9994C1.38308 34.9994 0.910694 34.8049 0.561134 34.4582C0.211895 34.1111 0.0139389 33.6402 0.0103798 33.1478C0.00682068 32.6555 0.197952 32.1817 0.542137 31.8296Z" fill="#C5DAFF"/>
</svg>
