<svg width="161" height="136" viewBox="0 0 161 136" fill="none" xmlns="http://www.w3.org/2000/svg">
<path fill-rule="evenodd" clip-rule="evenodd" d="M65.6865 28.468L65.6956 28.4731L65.6858 28.469L65.6865 28.468ZM65.6858 28.469L42.3796 63.1237L0.335938 0.692383L65.6858 28.469ZM65.6861 108.221L65.6867 108.222L65.6958 108.217L65.6861 108.221ZM42.3799 73.5666L65.6861 108.221L42.4072 118.117L27.4043 95.8055L42.3799 73.5666ZM36.6922 120.546L0.335938 136L23.7276 101.267L36.6922 120.546ZM46.1035 68.1809L71.4213 30.5316L160.003 68.1809L71.4334 105.825L71.4213 105.83L46.1035 68.1809Z" fill="url(#paint0_linear_534_304)"/>
<defs>
<linearGradient id="paint0_linear_534_304" x1="0.335938" y1="0.692383" x2="113.755" y2="157.659" gradientUnits="userSpaceOnUse">
<stop stop-color="#21D2FE"/>
<stop offset="1" stop-color="#A332FE"/>
</linearGradient>
</defs>
</svg>
