<svg width="32" height="32" viewBox="0 0 32 32" fill="none" xmlns="http://www.w3.org/2000/svg">
<path opacity="0.2" d="M28.7855 31.2731H3.21278C1.84491 31.2731 0.724609 30.1528 0.724609 28.7849V3.21376C0.724609 1.84589 1.84491 0.725586 3.21278 0.725586H28.784C30.1518 0.725586 31.2721 1.84589 31.2721 3.21376V28.7849C31.2721 30.1544 30.1534 31.2731 28.7855 31.2731Z" fill="#E6E6E5"/>
<path d="M28.7855 31.2731H3.21278C1.84491 31.2731 0.724609 30.1528 0.724609 28.7849V3.21376C0.724609 1.84589 1.84491 0.725586 3.21278 0.725586H28.784C30.1518 0.725586 31.2721 1.84589 31.2721 3.21376V28.7849C31.2721 30.1544 30.1534 31.2731 28.7855 31.2731Z" stroke="white" stroke-miterlimit="10"/>
<path d="M14.0162 22.4251L10.8245 16.8408L8.77344 20.4242L10.8276 24.0186L14.0177 22.4235L14.0162 22.4251Z" fill="white"/>
<path d="M5.06836 26.899L10.0463 24.4108L8.27102 21.3037L5.06836 26.899Z" fill="white"/>
<path d="M14.0167 9.57554L14.0183 9.57711L5.06836 5.10059L10.825 15.1583L14.0167 9.57554Z" fill="white"/>
<path d="M14.8014 9.9082L11.334 15.9735L14.8014 22.0388H14.803L26.9305 15.9735L14.8014 9.9082Z" fill="white"/>
</svg>
