<svg width="32" height="32" viewBox="0 0 32 32" fill="none" xmlns="http://www.w3.org/2000/svg">
<path opacity="0.2" d="M29.2328 0.5H3.28284C1.88831 0.5 0.757812 1.63049 0.757812 3.02503V28.975C0.757812 30.3695 1.88831 31.5 3.28284 31.5H29.2328C30.6273 31.5 31.7578 30.3695 31.7578 28.975V3.02503C31.7578 1.63049 30.6273 0.5 29.2328 0.5Z" fill="#E6E6E5"/>
<path d="M2.60648 0.5H29.3935C30.5569 0.5 31.5 1.4431 31.5 2.60648V29.3935C31.5 30.5569 30.5569 31.5 29.3935 31.5H2.60648C1.4431 31.5 0.5 30.5569 0.5 29.3935V2.60648C0.5 1.4431 1.4431 0.5 2.60648 0.5Z" stroke="white" stroke-miterlimit="10"/>
<path d="M14.3693 23.1486L11.0274 17.2988L8.87891 21.0526L11.0307 24.8179L14.3725 23.147L14.3693 23.1486Z" fill="white"/>
<path d="M5 27.834L10.2146 25.2258L8.35495 21.9727L5 27.834Z" fill="white"/>
<path d="M14.3722 9.68773L14.3755 9.68937L5 5L11.0304 15.5359L14.3722 9.68773Z" fill="white"/>
<path d="M15.1929 10.0352L11.5605 16.3889L15.1929 22.7426H15.1945L27.8987 16.3889L15.1929 10.0352Z" fill="white"/>
</svg>
